<?xml version="1.0" encoding="UTF-8"?>
<svg version="1.1" xmlns="http://www.w3.org/2000/svg" width="512" height="512">
<path d="M0 0 C1.00312288 -0.01303874 2.00624577 -0.02607747 3.03976631 -0.03951132 C4.68202092 -0.02278091 4.68202092 -0.02278091 6.35745239 -0.00571251 C8.1104128 -0.01741244 8.1104128 -0.01741244 9.89878654 -0.02934873 C13.13900673 -0.04584281 16.37829053 -0.03990639 19.61848736 -0.02441764 C23.1141477 -0.01310921 26.60968102 -0.03056424 30.10531616 -0.04431725 C36.9517846 -0.0665598 43.79797909 -0.06174407 50.64445829 -0.04725404 C56.20829741 -0.03596574 61.77205971 -0.03442911 67.33590698 -0.03987312 C68.52335536 -0.04102237 68.52335536 -0.04102237 69.73479259 -0.04219484 C71.34293829 -0.04379345 72.95108396 -0.04541452 74.55922961 -0.04705779 C89.64168029 -0.06131827 104.72397906 -0.04491793 119.80640483 -0.01805596 C132.75009182 0.00428313 145.69355461 0.00040308 158.63723755 -0.02264977 C173.66541041 -0.04940255 188.6934501 -0.05994494 203.72164345 -0.04458845 C205.32389957 -0.04299569 206.92615571 -0.04142383 208.52841187 -0.03987312 C209.71094742 -0.03871606 209.71094742 -0.03871606 210.91737258 -0.03753562 C216.47504806 -0.03321704 222.03263912 -0.04050854 227.59030151 -0.05227089 C234.36256829 -0.06628867 241.13454527 -0.06251142 247.90677881 -0.03586717 C251.36269996 -0.0227189 254.81813782 -0.01759299 258.27405548 -0.03411293 C262.01881203 -0.04772173 265.76219789 -0.03070586 269.50686646 -0.00571251 C270.60170286 -0.01686612 271.69653927 -0.02801973 272.82455254 -0.03951132 C277.37348595 0.01961637 280.15792536 0.16597419 284.11076355 2.53099442 C286.73658145 6.99753504 286.59483354 10.73929924 286.49978638 15.83550453 C286.50051651 16.86035957 286.50124664 17.88521461 286.5019989 18.94112587 C286.49851979 22.32337084 286.45964128 25.70423302 286.42044067 29.08623695 C286.41111375 31.43320908 286.40399707 33.78019094 286.39900208 36.12717628 C286.37992306 42.30057143 286.33081333 48.4733772 286.27548218 54.64653969 C286.22430986 60.94732121 286.20149227 67.24819809 286.17630005 73.54912758 C286.12269641 85.90941239 286.03737177 98.26926001 285.93215942 110.6292057 C287.01498797 110.62459674 288.09781652 110.61998777 289.21345806 110.61523914 C315.5442707 110.50430941 341.87505308 110.42210934 368.20604992 110.37014484 C380.93946314 110.34434814 393.67272214 110.30916936 406.40603638 110.25200844 C417.50261308 110.20221866 428.59907811 110.16992537 439.69576341 110.15876323 C445.57303935 110.15223704 451.44999575 110.13686775 457.32716942 110.10055542 C462.85687102 110.06666615 468.38612086 110.05613858 473.91591644 110.0636673 C475.94727596 110.0622896 477.97865028 110.05231529 480.00992012 110.03317833 C482.78067494 110.00835083 485.54971757 110.01426278 488.32051086 110.02793312 C489.12693675 110.01336891 489.93336263 109.99880471 490.76422566 109.98379916 C494.69891391 110.03638079 496.71850667 110.47374905 499.93070507 112.81098843 C502.1919449 115.99500567 502.55968614 117.46203882 502.56707764 121.32195473 C502.58117676 122.45751305 502.59527588 123.59307137 502.60980225 124.76304054 C502.59968109 125.99955864 502.58955994 127.23607674 502.57913208 128.51006508 C502.58789368 129.81949577 502.59665527 131.12892647 502.60568237 132.47803688 C502.62844597 136.06290906 502.61965229 139.64706052 502.60378695 143.23194504 C502.59111236 146.98657714 502.60287236 150.74114828 502.61071777 154.49578285 C502.61980987 160.80062355 502.60783824 167.10517123 502.58401489 173.40996742 C502.55680411 180.69528863 502.56561861 187.97991019 502.59314692 195.26521444 C502.6158498 201.52442579 502.61903242 207.78342673 502.60595357 214.04266596 C502.5981654 217.77920466 502.5970996 221.51541467 502.61363602 225.25193214 C502.63078544 229.41782382 502.6070063 233.58251277 502.57913208 237.74834633 C502.58925323 238.98486443 502.59937439 240.22138252 502.60980225 241.49537086 C502.50698382 249.77647668 502.50698382 249.77647668 499.70422363 253.93425941 C496.93215942 255.6292057 496.93215942 255.6292057 491.93215942 255.6292057 C491.93215942 263.8792057 491.93215942 272.1292057 491.93215942 280.6292057 C493.58215942 280.6292057 495.23215942 280.6292057 496.93215942 280.6292057 C500.04766628 282.70621028 501.65545428 284.2788846 502.42044067 288.0120182 C502.6592085 292.58271663 502.41517501 294.93918344 499.74465942 298.7542057 C496.93215942 300.6292057 496.93215942 300.6292057 491.93215942 300.6292057 C491.93215942 308.8792057 491.93215942 317.1292057 491.93215942 325.6292057 C493.91215942 325.9592057 495.89215942 326.2892057 497.93215942 326.6292057 C500.9358474 329.33364107 501.83289741 330.97225498 502.4383173 334.97913551 C502.44252768 336.90930771 502.44252768 336.90930771 502.44682312 338.87847328 C502.45376865 339.59792279 502.46071418 340.3173723 502.46787018 341.05862331 C502.48613397 343.4639786 502.4758783 345.8683469 502.46560669 348.27373695 C502.47266547 350.00033747 502.48141031 351.7269318 502.49171448 353.45351601 C502.51422164 358.13945796 502.51126587 362.82506239 502.50239301 367.51103783 C502.49728447 371.42274744 502.50457449 375.33439354 502.51186508 379.24609661 C502.52886792 388.47313992 502.5252939 397.70001786 502.50857544 406.92705727 C502.49164745 416.44810358 502.50749707 425.96869165 502.53979832 435.48968792 C502.5664805 443.66393141 502.57377412 451.83803213 502.56528324 460.0123148 C502.56035077 464.8946131 502.5625871 469.77663555 502.58307076 474.65889931 C502.60140676 479.24899154 502.5954949 483.83842355 502.57087135 488.42848015 C502.5658571 490.11311576 502.56936919 491.7978015 502.58201981 493.48239708 C502.59792539 495.78233882 502.58302688 498.08009967 502.56034851 500.37993813 C502.5597622 501.66671959 502.55917589 502.95350105 502.55857182 504.27927589 C501.93215942 507.6292057 501.93215942 507.6292057 500.19239712 510.54260254 C495.0667271 513.8231116 490.10409277 513.31798959 484.14016724 513.26412392 C482.82451908 513.27192387 481.50887093 513.27972382 480.15335464 513.28776014 C476.50278091 513.30864821 472.85286005 513.29830998 469.20228386 513.28282905 C465.26490716 513.27152725 461.32764361 513.28897238 457.39028931 513.30272865 C449.67754591 513.32497822 441.96504561 513.32015229 434.25229263 513.30566545 C427.98479464 513.29437993 421.71736485 513.29283932 415.44985962 513.29828453 C414.55831436 513.2990507 413.66676911 513.29981686 412.74820733 513.30060624 C410.93712964 513.30220485 409.12605196 513.30382591 407.31497431 513.3054692 C390.32686581 513.31973173 373.33889215 513.30332609 356.35080576 513.27646737 C341.76978319 513.25412812 327.18895965 513.25800811 312.60794067 513.28106117 C295.68121436 513.30781029 278.75460628 513.31835839 261.82786179 513.30299985 C260.02339429 513.30140708 258.21892677 513.29983523 256.41445923 513.29828453 C255.08266172 513.29712746 255.08266172 513.29712746 253.72395921 513.29594702 C247.46296749 513.29162735 241.20205067 513.29892232 234.94107056 513.3106823 C227.31242729 513.32469599 219.68404129 513.32093132 212.05542755 513.29427858 C208.16206703 513.28112496 204.26913568 513.27601384 200.3757782 513.29252434 C196.15819463 513.31013946 191.94169749 513.28912806 187.72415161 513.26412392 C186.48924107 513.27527753 185.25433052 513.28643113 183.98199844 513.29792273 C175.78290829 513.20319221 175.78290829 513.20319221 171.67023945 510.42844105 C169.76020159 507.35226193 169.31313499 505.79594611 169.33088684 502.20652199 C169.32401352 501.1310511 169.3171402 500.05558022 169.31005859 498.9475193 C169.32803497 497.77795189 169.34601135 496.60838448 169.36453247 495.40337563 C169.36343727 493.54422523 169.36343727 493.54422523 169.36231995 491.64751625 C169.36520304 488.25682457 169.39024383 484.8676623 169.42518973 481.47724128 C169.45648502 477.93120646 169.45938644 474.3851504 169.46531677 470.83899879 C169.48084604 464.12764361 169.52186159 457.41669655 169.57206422 450.70552093 C169.63844685 441.63410425 169.66539966 432.56257566 169.69457531 423.49097729 C169.74156464 409.2034145 169.84118195 394.91671288 169.93215942 380.6292057 C144.52215942 380.6292057 119.11215942 380.6292057 92.93215942 380.6292057 C93.23371526 401.04681687 93.23371526 401.04681687 102.93215942 417.6292057 C104.87894599 419.18751786 106.7578671 420.38675295 108.93215942 421.6292057 C109.26215942 421.2992057 109.59215942 420.9692057 109.93215942 420.6292057 C109.29278442 419.9279557 108.65340942 419.2267057 107.99465942 418.5042057 C105.67083729 415.26493849 105.01153228 413.59784862 104.93215942 409.6292057 C106.38211373 405.2793428 107.08100618 403.1966412 110.93215942 400.6292057 C114.50663922 399.53892036 117.33353514 399.63118723 120.93215942 400.6292057 C125.11235326 403.6226949 128.60562514 407.10813926 132.16311646 410.80596352 C134.00935135 412.7087626 135.89864178 414.55836747 137.80325317 416.4026432 C139.07634052 417.64385507 140.34849792 418.8860216 141.61965942 420.1292057 C142.52023071 421.00923256 142.52023071 421.00923256 143.43899536 421.90703773 C143.99748169 422.46504066 144.55596802 423.02304359 145.13137817 423.5979557 C145.62468628 424.08715492 146.11799438 424.57635414 146.62625122 425.08037758 C148.88008102 427.75345595 149.85556634 430.04199207 150.30715942 433.5042057 C149.58727186 439.50326877 145.24619895 443.56273241 141.08840942 447.6682682 C140.17188599 448.57834633 139.25536255 449.48842445 138.31106567 450.4260807 C137.35155622 451.36891725 136.39191972 452.3116245 135.43215942 453.2542057 C134.47205779 454.20425562 133.51241847 455.15477297 132.55325317 456.1057682 C130.7879586 457.85368295 129.02061162 459.59952917 127.2505188 461.34258461 C125.7367175 462.83566201 124.24501461 464.35157672 122.77957153 465.89214516 C120.43872111 468.09316944 119.16917305 468.1965971 115.99465942 468.1917057 C112.22423672 468.03043394 111.07793415 467.73035551 107.86965942 465.5042057 C105.67928474 462.2539723 104.93215942 460.54638736 104.93215942 456.6292057 C106.49245897 451.86618604 108.33915956 449.03623249 111.93215942 445.6292057 C111.18192505 445.41006508 110.43169067 445.19092445 109.65872192 444.9651432 C96.34963322 440.8416724 85.69901501 434.5865475 78.61965942 422.2542057 C73.25512198 411.72921648 71.75393935 401.39723668 71.86965942 389.6917057 C71.87417114 388.8170768 71.87868286 387.94244789 71.8833313 387.04131508 C71.89501108 384.90391523 71.91294253 382.76655108 71.93215942 380.6292057 C70.97860062 380.64030876 70.02504181 380.65141182 69.04258728 380.66285133 C60.05268699 380.76424491 51.06290283 380.83917933 42.07256031 380.88826656 C37.45056627 380.91435154 32.82903412 380.9497291 28.20730591 381.00640297 C23.74634454 381.06076259 19.28582719 381.09063452 14.82456017 381.10359192 C13.1232676 381.11282477 11.42199911 381.13085483 9.72089577 381.15785599 C7.33611327 381.19420075 4.95316101 381.19914907 2.56814575 381.19683266 C1.86611526 381.21480904 1.16408478 381.23278542 0.44078064 381.25130653 C-3.19334706 381.21315758 -4.88185852 380.77758095 -7.74879587 378.4903574 C-10.51329087 375.07962559 -10.69390284 373.58409036 -10.69704628 369.249506 C-10.71008502 367.95377789 -10.72312375 366.65804977 -10.7365576 365.32305717 C-10.72574753 363.88701724 -10.71446426 362.45098081 -10.70275879 361.01494789 C-10.70851946 359.48801048 -10.71646022 357.96108 -10.72639501 356.43416405 C-10.74729943 352.23634328 -10.7369371 348.03908965 -10.72146392 343.84126663 C-10.71016894 339.31493314 -10.72760389 334.7886984 -10.74136353 330.26238441 C-10.76362031 321.39460473 -10.75878389 312.52703639 -10.74430032 303.65924835 C-10.73301767 296.45353775 -10.73147296 289.24788647 -10.7369194 282.04216957 C-10.73768557 281.01740698 -10.73845173 279.99264438 -10.73924112 278.93682837 C-10.74083971 276.85517468 -10.74246078 274.77352101 -10.74410407 272.69186735 C-10.75836873 253.16287974 -10.74195761 233.6340094 -10.71510224 214.10504103 C-10.69276282 197.34090176 -10.69664275 180.57693559 -10.71969604 163.81279945 C-10.74644139 144.35466727 -10.75699536 124.89663791 -10.74163473 105.43848991 C-10.74004195 103.36440724 -10.73847009 101.29032454 -10.7369194 99.21624184 C-10.73614803 98.19569954 -10.73537665 97.17515724 -10.7345819 96.12368941 C-10.7302611 88.92494159 -10.73755962 81.72625888 -10.74931717 74.52752113 C-10.76332665 65.75703887 -10.75957494 56.98678041 -10.73291345 48.21632385 C-10.71975432 43.73970532 -10.7146584 39.26346019 -10.73115921 34.78684425 C-10.74602869 30.69091741 -10.73792094 26.59571102 -10.71127145 22.4998498 C-10.70567363 21.01607811 -10.7085561 19.53224589 -10.72065039 18.04851294 C-10.73580485 16.03535209 -10.71730399 14.02202137 -10.69704628 12.00890541 C-10.69623452 10.8895422 -10.69542276 9.77017899 -10.6945864 8.61689568 C-9.48372874 2.84475145 -5.78381117 0.00543291 0 0 Z " fill="#000000" transform="translate(10.067840576171875,-0.6292057037353516)"/>
<path d="M0 0 C64.68 0 129.36 0 196 0 C196.375 58.1875 196.375 58.1875 196.47802734 76.55932617 C196.5179368 81.99461608 196.5179368 81.99461608 196.56045532 87.42988586 C196.57813893 89.85047582 196.59194491 92.27109599 196.60269165 94.69172668 C196.61972465 98.35866041 196.64906638 102.02530991 196.68115234 105.69213867 C196.68332449 106.77024653 196.68549664 107.8483544 196.6877346 108.95913219 C196.69888613 109.94841371 196.71003765 110.93769522 196.7215271 111.95695496 C196.72705786 112.81514422 196.73258862 113.67333349 196.73828697 114.5575285 C197.0567975 117.53007016 197.45258532 119.41499992 199 122 C201.31 122.99 203.62 123.98 206 125 C206 133.25 206 141.5 206 150 C207.65 150 209.3 150 211 150 C214.11550686 152.07700457 215.72329486 153.64967889 216.48828125 157.3828125 C216.72704908 161.95351093 216.48301558 164.30997774 213.8125 168.125 C211 170 211 170 206 170 C206 178.58 206 187.16 206 196 C203.69 196.99 201.38 197.98 199 199 C196.61033585 202.58449622 196.74154388 204.17474365 196.7215271 208.4349823 C196.71574142 209.08933258 196.70995575 209.74368286 196.70399475 210.41786194 C196.68693916 212.62131578 196.6841243 214.82456148 196.68115234 217.02807617 C196.67174451 218.63041603 196.6614658 220.23275098 196.6503849 221.83508015 C196.62308159 226.1319487 196.60772198 230.42878293 196.59480286 234.72571564 C196.58088687 238.75554469 196.55624432 242.78527999 196.5324707 246.81506348 C196.46918099 258.60582263 196.42314866 270.3966693 196.375 282.1875 C196.25125 308.525625 196.1275 334.86375 196 362 C99.64 362 3.28 362 -96 362 C-96 325.04 -96 288.08 -96 250 C-52.3125 249.625 -52.3125 249.625 -38.52856445 249.52197266 C-34.44379621 249.48205452 -34.44379621 249.48205452 -30.35905457 249.43954468 C-28.54263893 249.42188339 -26.72618338 249.40806765 -24.90971375 249.39730835 C-22.15488887 249.38023911 -19.40043798 249.35089008 -16.64575195 249.31884766 C-15.43611392 249.31558944 -15.43611392 249.31558944 -14.20203876 249.3122654 C-8.31931752 249.22495449 -8.31931752 249.22495449 -3 247 C-0.83932856 242.86657744 -0.69624851 239.12639602 -0.5859375 234.51171875 C-0.56657135 233.80852005 -0.5472052 233.10532135 -0.5272522 232.3808136 C-0.46779817 230.14982981 -0.42120951 227.91879346 -0.375 225.6875 C-0.33678863 224.16859814 -0.29773508 222.64971722 -0.2578125 221.13085938 C-0.16212584 217.42076533 -0.07796928 213.71051349 0 210 C0.86121806 209.99668985 1.72243612 209.99337971 2.6097517 209.98996925 C23.55801883 209.90877477 44.50621338 209.81669396 65.45437908 209.71247292 C75.58472367 209.66233552 85.71506011 209.6158927 95.84545898 209.578125 C104.67435714 209.54520015 113.50319235 209.50536616 122.33202106 209.45720994 C127.00748953 209.4319499 131.68291627 209.41016711 136.35843468 209.39665604 C140.75870347 209.38383125 145.15882912 209.36177225 149.55901909 209.33261681 C151.17429813 209.32354432 152.78960022 209.31785156 154.40490341 209.31578636 C156.61036416 209.31246149 158.81541963 209.29697829 161.02079773 209.2784729 C162.87221894 209.27017676 162.87221894 209.27017676 164.76104259 209.26171303 C167.95151685 209.00391752 170.15789045 208.44111884 173 207 C175.60756392 203.64741781 175.43949492 200.10195255 175 196 C172.78136971 193.09282927 171.48055071 192.16018357 168 191 C165.7555576 190.89601055 163.50812628 190.85350998 161.26130676 190.84178162 C160.57270669 190.83684364 159.88410662 190.83190566 159.17463988 190.82681805 C156.86227865 190.81143351 154.5499452 190.80307986 152.23754883 190.79467773 C150.58195246 190.78509996 148.92635855 190.77508994 147.27076721 190.76467896 C142.77110402 190.73761291 138.27143033 190.71661254 133.77173066 190.69667697 C129.07116414 190.67482791 124.37063007 190.64743394 119.67008972 190.62062073 C110.76663319 190.57067923 101.86315867 190.5257458 92.95966691 190.48259836 C82.8243395 190.43323844 72.68904465 190.37831569 62.55374873 190.32291877 C41.7025293 190.20907636 20.8512783 190.10243955 0 190 C0 183.4 0 176.8 0 170 C2.09361374 169.99191315 4.18722748 169.98382629 6.34428406 169.97549438 C26.04770351 169.89844774 45.75105267 169.81050065 65.45437908 169.71247292 C75.58472367 169.66233552 85.71506011 169.6158927 95.84545898 169.578125 C104.67435714 169.54520015 113.50319235 169.50536616 122.33202106 169.45720994 C127.00748953 169.4319499 131.68291627 169.41016711 136.35843468 169.39665604 C140.75870347 169.38383125 145.15882912 169.36177225 149.55901909 169.33261681 C151.17429813 169.32354432 152.78960022 169.31785156 154.40490341 169.31578636 C156.61036416 169.31246149 158.81541963 169.29697829 161.02079773 169.2784729 C162.87221894 169.27017676 162.87221894 169.27017676 164.76104259 169.26171303 C167.95151685 169.00391752 170.15789045 168.44111884 173 167 C175.60756392 163.64741781 175.43949492 160.10195255 175 156 C172.78136971 153.09282927 171.48055071 152.16018357 168 151 C165.7555576 150.89601055 163.50812628 150.85350998 161.26130676 150.84178162 C160.57270669 150.83684364 159.88410662 150.83190566 159.17463988 150.82681805 C156.86227865 150.81143351 154.5499452 150.80307986 152.23754883 150.79467773 C150.58195246 150.78509996 148.92635855 150.77508994 147.27076721 150.76467896 C142.77110402 150.73761291 138.27143033 150.71661254 133.77173066 150.69667697 C129.07116414 150.67482791 124.37063007 150.64743394 119.67008972 150.62062073 C110.76663319 150.57067923 101.86315867 150.5257458 92.95966691 150.48259836 C82.8243395 150.43323844 72.68904465 150.37831569 62.55374873 150.32291877 C41.7025293 150.20907636 20.8512783 150.10243955 0 150 C0 143.4 0 136.8 0 130 C2.09361374 129.99191315 4.18722748 129.98382629 6.34428406 129.97549438 C26.04770351 129.89844774 45.75105267 129.81050065 65.45437908 129.71247292 C75.58472367 129.66233552 85.71506011 129.6158927 95.84545898 129.578125 C104.67435714 129.54520015 113.50319235 129.50536616 122.33202106 129.45720994 C127.00748953 129.4319499 131.68291627 129.41016711 136.35843468 129.39665604 C140.75870347 129.38383125 145.15882912 129.36177225 149.55901909 129.33261681 C151.17429813 129.32354432 152.78960022 129.31785156 154.40490341 129.31578636 C156.61036416 129.31246149 158.81541963 129.29697829 161.02079773 129.2784729 C162.87221894 129.27017676 162.87221894 129.27017676 164.76104259 129.26171303 C167.95151685 129.00391752 170.15789045 128.44111884 173 127 C175.60756392 123.64741781 175.43949492 120.10195255 175 116 C172.78136971 113.09282927 171.48055071 112.16018357 168 111 C165.7555576 110.89601055 163.50812628 110.85350998 161.26130676 110.84178162 C160.57270669 110.83684364 159.88410662 110.83190566 159.17463988 110.82681805 C156.86227865 110.81143351 154.5499452 110.80307986 152.23754883 110.79467773 C150.58195246 110.78509996 148.92635855 110.77508994 147.27076721 110.76467896 C142.77110402 110.73761291 138.27143033 110.71661254 133.77173066 110.69667697 C129.07116414 110.67482791 124.37063007 110.64743394 119.67008972 110.62062073 C110.76663319 110.57067923 101.86315867 110.5257458 92.95966691 110.48259836 C82.8243395 110.43323844 72.68904465 110.37831569 62.55374873 110.32291877 C41.7025293 110.20907636 20.8512783 110.10243955 0 110 C0 103.4 0 96.8 0 90 C2.09361374 89.99191315 4.18722748 89.98382629 6.34428406 89.97549438 C26.04770351 89.89844774 45.75105267 89.81050065 65.45437908 89.71247292 C75.58472367 89.66233552 85.71506011 89.6158927 95.84545898 89.578125 C104.67435714 89.54520015 113.50319235 89.50536616 122.33202106 89.45720994 C127.00748953 89.4319499 131.68291627 89.41016711 136.35843468 89.39665604 C140.75870347 89.38383125 145.15882912 89.36177225 149.55901909 89.33261681 C151.17429813 89.32354432 152.78960022 89.31785156 154.40490341 89.31578636 C156.61036416 89.31246149 158.81541963 89.29697829 161.02079773 89.2784729 C162.87221894 89.27017676 162.87221894 89.27017676 164.76104259 89.26171303 C167.95151685 89.00391752 170.15789045 88.44111884 173 87 C175.60756392 83.64741781 175.43949492 80.10195255 175 76 C172.78136971 73.09282927 171.48055071 72.16018357 168 71 C165.7555576 70.89601055 163.50812628 70.85350998 161.26130676 70.84178162 C160.57270669 70.83684364 159.88410662 70.83190566 159.17463988 70.82681805 C156.86227865 70.81143351 154.5499452 70.80307986 152.23754883 70.79467773 C150.58195246 70.78509996 148.92635855 70.77508994 147.27076721 70.76467896 C142.77110402 70.73761291 138.27143033 70.71661254 133.77173066 70.69667697 C129.07116414 70.67482791 124.37063007 70.64743394 119.67008972 70.62062073 C110.76663319 70.57067923 101.86315867 70.5257458 92.95966691 70.48259836 C82.8243395 70.43323844 72.68904465 70.37831569 62.55374873 70.32291877 C41.7025293 70.20907636 20.8512783 70.10243955 0 70 C0 63.4 0 56.8 0 50 C2.38873604 49.98786972 2.38873604 49.98786972 4.82572937 49.97549438 C19.82000036 49.89807154 34.81417244 49.81045964 49.80832195 49.71247292 C57.51729537 49.66235661 65.22625821 49.61591358 72.93530273 49.578125 C79.654706 49.54517817 86.37402691 49.50533208 93.09333926 49.45720994 C96.65097972 49.43197167 100.20856573 49.41018254 103.76627159 49.39665604 C107.73840453 49.38142458 111.71033759 49.35078969 115.68237305 49.31884766 C116.8612912 49.31668747 118.04020935 49.31452728 119.25485229 49.31230164 C120.88067986 49.29555641 120.88067986 49.29555641 122.53935242 49.2784729 C123.47865947 49.27294214 124.41796652 49.26741138 125.38573742 49.26171303 C128.26104314 48.97386705 130.40642653 48.25939353 133 47 C135.60756392 43.64741781 135.43949492 40.10195255 135 36 C132.78136971 33.09282927 131.48055071 32.16018357 128 31 C126.26213139 30.89824117 124.52066578 30.85371661 122.77986145 30.84178162 C121.15815788 30.82709839 121.15815788 30.82709839 119.50369263 30.81211853 C117.72452957 30.80348534 117.72452957 30.80348534 115.90942383 30.79467773 C114.66052872 30.78477814 113.41163361 30.77487854 112.12489319 30.76467896 C108.69956533 30.7384828 105.27426089 30.71662422 101.84889436 30.69667697 C98.26941051 30.67481228 94.68996906 30.64742595 91.11051941 30.62062073 C84.33202637 30.57070038 77.55350979 30.52575911 70.77497071 30.48259836 C63.05797045 30.43322037 55.34101272 30.37830432 47.6240536 30.32291877 C31.74940686 30.20910881 15.87472112 30.10299873 0 30 C0 20.1 0 10.2 0 0 Z " fill="#DEECFE" transform="translate(296,130)"/>
<path d="M0 0 C84.48 0 168.96 0 256 0 C256 69.96 256 139.92 256 212 C252.01549516 210.40619806 248.71350835 208.77223399 245.046875 206.61328125 C244.47744171 206.27911194 243.90800842 205.94494263 243.32131958 205.60064697 C241.46210093 204.50814201 239.60598189 203.4104932 237.75 202.3125 C236.45990216 201.55247647 235.1696991 200.79263151 233.87939453 200.03295898 C200.81288896 180.54192597 200.81288896 180.54192597 194 176 C186.65438977 175.03568858 183.04665502 177.33636097 177.26171875 181.6484375 C175.57936884 182.85099261 173.89623757 184.05245523 172.21240234 185.25292969 C171.35193298 185.87486206 170.49146362 186.49679443 169.60491943 187.13757324 C165.4480995 190.10955486 161.20259083 192.94602204 156.95703125 195.7890625 C155.26858748 196.92664897 153.58043738 198.06467144 151.89257812 199.203125 C149.34624165 200.91848977 146.79973279 202.63359835 144.25317383 204.34863281 C142.55425182 205.49303992 140.85567175 206.6379548 139.15744019 207.78338623 C137.49829396 208.90130458 135.83761567 210.0169529 134.17532349 211.13018799 C130.19093949 213.8061869 126.2519287 216.52258575 122.37646484 219.35449219 C121.2856385 220.14054337 121.2856385 220.14054337 120.17277527 220.94247437 C118.81056408 221.9281364 117.45877183 222.9284221 116.11982727 223.94546509 C114.29174805 225.25927734 114.29174805 225.25927734 111 227 C108.40380859 226.49707031 108.40380859 226.49707031 106 225 C105.11820068 224.48228027 104.23640137 223.96456055 103.32788086 223.43115234 C102.38307861 222.82223145 101.43827637 222.21331055 100.46484375 221.5859375 C99.40716797 220.90660156 98.34949219 220.22726563 97.25976562 219.52734375 C95.61524414 218.46193359 95.61524414 218.46193359 93.9375 217.375 C92.86822266 216.68792969 91.79894531 216.00085938 90.69726562 215.29296875 C89.63056641 214.60589844 88.56386719 213.91882813 87.46484375 213.2109375 C86.39476074 212.52354492 85.32467773 211.83615234 84.22216797 211.12792969 C82.05058618 209.69381036 79.90875969 208.21372134 77.79736328 206.69238281 C71.82521554 202.17770228 71.82521554 202.17770228 64.80078125 200.1171875 C59.58389355 201.32892092 56.32085804 203.81274676 52.1875 207.125 C50.50429341 208.4197743 48.82068847 209.71403088 47.13671875 211.0078125 C46.28384277 211.67329102 45.4309668 212.33876953 44.55224609 213.02441406 C40.58983951 216.09154569 36.54451784 219.04254624 32.5 222 C30.93566321 223.15031486 29.37186404 224.30136119 27.80859375 225.453125 C27.02726074 226.02869141 26.24592773 226.60425781 25.44091797 227.19726562 C22.86425852 229.10025156 20.2930673 231.01045904 17.72265625 232.921875 C16.85898437 233.56253906 15.9953125 234.20320312 15.10546875 234.86328125 C13.44864969 236.0925341 11.79360866 237.32418821 10.140625 238.55859375 C9.02107422 239.38810547 9.02107422 239.38810547 7.87890625 240.234375 C7.2247876 240.72131836 6.57066895 241.20826172 5.89672852 241.70996094 C4 243 4 243 0 245 C0 164.15 0 83.3 0 0 Z " fill="#F9F6F4" transform="translate(20,20)"/>
<path d="M0 0 C2.39199576 0.86189169 4.44155406 2.00450337 6.63244629 3.29705811 C8.02995117 4.11678101 8.02995117 4.11678101 9.45568848 4.95306396 C10.964375 5.84843872 10.964375 5.84843872 12.50354004 6.76190186 C13.55187012 7.37879883 14.6002002 7.9956958 15.68029785 8.63128662 C18.51383938 10.30061944 21.34459015 11.97454402 24.17352295 13.65167236 C25.95410235 14.70714479 27.73531908 15.76153372 29.51672363 16.81561279 C34.18021588 19.57538165 38.84314042 22.33607395 43.50183105 25.10394287 C44.55942627 25.73228027 45.61702148 26.36061768 46.70666504 27.00799561 C48.08 27.82481812 48.08 27.82481812 49.4810791 28.65814209 C54.62282595 31.69159858 59.78438715 34.69135434 64.94104004 37.69940186 C64.94104004 72.34940186 64.94104004 106.99940186 64.94104004 142.69940186 C-19.53895996 142.69940186 -104.01895996 142.69940186 -191.05895996 142.69940186 C-191.05895996 119.59940186 -191.05895996 96.49940186 -191.05895996 72.69940186 C-171.70310263 57.8978639 -171.70310263 57.8978639 -165.18395996 53.26190186 C-158.79548144 48.68253748 -152.44409643 44.05678226 -146.12145996 39.38690186 C-139.45402978 34.46291777 -132.77400289 29.55837674 -126.05895996 24.69940186 C-118.96974697 28.47080122 -112.26097603 32.72026446 -105.55895996 37.13690186 C-104.5779834 37.77949951 -103.59700684 38.42209717 -102.58630371 39.08416748 C-101.61821777 39.71903076 -100.65013184 40.35389404 -99.65270996 41.00799561 C-98.70395996 41.62400635 -97.75520996 42.24001709 -96.77770996 42.87469482 C-95.03321832 44.04552192 -93.32024059 45.26558349 -91.65270996 46.54364014 C-88.00492024 49.28502378 -85.28766296 51.17479104 -80.61364746 50.96502686 C-75.01354852 49.84066403 -70.76771093 46.71180704 -66.18395996 43.44940186 C-64.65799839 42.39796107 -63.13196592 41.34662149 -61.60466003 40.2971344 C-60.45224832 39.50341631 -59.30152705 38.70723957 -58.15229797 37.90892029 C-52.5295689 34.00345631 -46.85444246 30.17782342 -41.17224121 26.35955811 C-40.21573669 25.71660797 -39.25923218 25.07365784 -38.27374268 24.41122437 C-36.32271769 23.09991881 -34.37162691 21.78871113 -32.42047119 20.4776001 C-27.71232375 17.31249695 -23.00764547 14.14228358 -18.30505371 10.96893311 C-17.4766951 10.41109634 -16.64833649 9.85325958 -15.7948761 9.27851868 C-15.01118149 8.74943405 -14.22748688 8.22034943 -13.42004395 7.67523193 C-12.6786618 7.17722076 -11.93727966 6.67920959 -11.1734314 6.16610718 C-9.78103675 5.20027118 -8.4119532 4.19978922 -7.07070923 3.16409302 C-2.49632701 -0.36445161 -2.49632701 -0.36445161 0 0 Z " fill="#9CE2D0" transform="translate(211.0589599609375,217.30059814453125)"/>
<path d="M0 0 C5.22178567 3.27641454 7.84342347 7.25335782 10 13 C10 13.66 10 14.32 10 15 C10.66 15 11.32 15 12 15 C12.2475 14.13375 12.495 13.2675 12.75 12.375 C14.08065458 8.78223264 15.73917222 6.08294698 18 3 C18.4125 2.38125 18.825 1.7625 19.25 1.125 C22.28262881 -0.82454709 25.57570629 -0.62077839 29 0 C31.8100346 1.79363911 33.50940468 3.01880935 35 6 C35.99905105 13.17764829 32.74920393 18.47136401 29.5625 24.75 C28.54179177 26.80670797 27.52220768 28.86397433 26.50390625 30.921875 C26.04830322 31.82518555 25.5927002 32.72849609 25.12329102 33.65917969 C23.90882223 36.0646436 23.90882223 36.0646436 23 39 C23.98482018 41.54926471 23.98482018 41.54926471 25.52734375 44.296875 C26.07197266 45.3384375 26.61660156 46.38 27.17773438 47.453125 C28.34355593 49.63726128 29.51278595 51.81958192 30.68554688 54 C35.93274292 64.06073952 35.93274292 64.06073952 35 70 C33.73001681 72.85746217 32.7161997 74.48137263 30.1875 76.3125 C27.23367076 77.24084633 25.084218 77.37765935 22 77 C16.52241903 74.06081021 14.27069248 68.54628717 12 63 C12 62.34 12 61.68 12 61 C11.34 61 10.68 61 10 61 C9.773125 61.825 9.54625 62.65 9.3125 63.5 C7.5473085 68.20717732 5.42511015 73.45143569 1.0546875 76.2421875 C-2.22719495 77.45261563 -4.66034604 76.83491349 -8 76 C-11.29931935 73.30845001 -12.79004715 71.35180168 -13.4453125 67.1328125 C-13.34730426 60.12340833 -8.36538167 53.58508134 -5.08984375 47.62890625 C-4.26806641 46.07623047 -4.26806641 46.07623047 -3.4296875 44.4921875 C-2.91647949 43.55745605 -2.40327148 42.62272461 -1.87451172 41.65966797 C-0.73899965 39.03263581 -0.73899965 39.03263581 -1.69921875 36.45898438 C-2.12847656 35.64751953 -2.55773437 34.83605469 -3 34 C-3.37785645 33.21318848 -3.75571289 32.42637695 -4.14501953 31.61572266 C-4.55349121 30.8066748 -4.96196289 29.99762695 -5.3828125 29.1640625 C-5.82753906 28.26429688 -6.27226562 27.36453125 -6.73046875 26.4375 C-7.65860031 24.56563803 -8.59609274 22.69838783 -9.54296875 20.8359375 C-12.08887647 15.64020745 -13.81270192 11.80931371 -13 6 C-9.33404658 0.37887142 -6.67491925 -0.66749193 0 0 Z " fill="#020202" transform="translate(335,395)"/>
<path d="M0 0 C0.84452728 -0.00953201 1.68905457 -0.01906403 2.55917358 -0.02888489 C3.46857697 -0.02797348 4.37798035 -0.02706207 5.31494141 -0.02612305 C6.25326813 -0.03040817 7.19159485 -0.0346933 8.15835571 -0.03910828 C10.14381097 -0.04485219 12.12928727 -0.04535139 14.11474609 -0.04101562 C17.14799081 -0.03786105 20.18025519 -0.06129535 23.21337891 -0.08666992 C25.14306518 -0.08894349 27.07275407 -0.08964615 29.00244141 -0.08862305 C29.90779633 -0.09783279 30.81315125 -0.10704254 31.74594116 -0.11653137 C36.56514889 -0.08125079 39.91999997 0.07313197 43.79150391 3.2746582 C46.24013641 6.94760696 46.62333828 10.00734785 45.79150391 14.2746582 C43.25696734 17.49420465 41.67853086 18.97898255 37.79150391 20.2746582 C36.06355039 20.34268787 34.33315026 20.35961465 32.60400391 20.3371582 C31.70294922 20.32813477 30.80189453 20.31911133 29.87353516 20.30981445 C29.18646484 20.29821289 28.49939453 20.28661133 27.79150391 20.2746582 C27.81482033 21.21307053 27.81482033 21.21307053 27.83860779 22.17044067 C27.9936715 28.69154833 28.09912999 35.21213118 28.17602539 41.73461914 C28.21119225 44.16745277 28.25893524 46.60013883 28.31958008 49.0324707 C28.40465852 52.53284107 28.44423161 56.03125385 28.47509766 59.5324707 C28.51122665 60.61706573 28.54735565 61.70166077 28.58457947 62.81912231 C28.58839835 70.19087656 28.58839835 70.19087656 26.29421997 73.31097412 C23.46806338 75.83313036 21.45397758 77.12593962 17.72900391 77.9621582 C13.58015009 76.99114986 11.80610308 75.28925737 8.79150391 72.2746582 C7.8151096 69.34547528 7.6701421 67.48440082 7.67797852 64.43603516 C7.67805405 63.4552449 7.67812958 62.47445465 7.6782074 61.46394348 C7.68336868 60.40761215 7.68852997 59.35128082 7.69384766 58.26293945 C7.6952626 57.17957809 7.69667755 56.09621674 7.69813538 54.98002625 C7.70373831 51.51570895 7.71629133 48.051456 7.72900391 44.5871582 C7.73401853 42.24015393 7.7385815 39.89314864 7.74267578 37.54614258 C7.7537087 31.78895912 7.7704497 26.03181326 7.79150391 20.2746582 C7.03949707 20.29786133 6.28749023 20.32106445 5.51269531 20.3449707 C4.030354 20.37204102 4.030354 20.37204102 2.51806641 20.3996582 C1.53918457 20.42286133 0.56030273 20.44606445 -0.44824219 20.4699707 C-3.27050184 20.27027075 -4.58191523 19.9316242 -6.83349609 18.2746582 C-9.73734151 14.60664294 -10.63216801 11.92563431 -10.20849609 7.2746582 C-8.06430528 2.34301934 -5.42608912 0.03368618 0 0 Z " fill="#020202" transform="translate(400.20849609375,394.725341796875)"/>
<path d="M0 0 C1.26690422 -0.01441132 1.26690422 -0.01441132 2.55940247 -0.02911377 C3.93124947 -0.03548859 3.93124947 -0.03548859 5.33081055 -0.04199219 C6.74042305 -0.0505423 6.74042305 -0.0505423 8.17851257 -0.05926514 C10.16994092 -0.06872193 12.16138496 -0.07525181 14.15283203 -0.07910156 C17.19485943 -0.08879495 20.23620779 -0.11980691 23.27807617 -0.15136719 C25.21231695 -0.15789843 27.14656256 -0.16314843 29.08081055 -0.16699219 C29.98930252 -0.17933899 30.89779449 -0.19168579 31.83381653 -0.20440674 C36.68883632 -0.18734657 39.96383143 -0.00665926 43.9050293 3.16113281 C46.0332566 5.77304814 46.02064851 7.91878891 45.7800293 11.16113281 C45.18724812 14.95069822 44.06422846 16.83819225 40.9050293 19.16113281 C37.89012373 20.16610134 35.86321238 20.26448584 32.7175293 20.22363281 C31.81647461 20.21460938 30.91541992 20.20558594 29.98706055 20.19628906 C29.29999023 20.1846875 28.61291992 20.17308594 27.9050293 20.16113281 C27.91169113 20.76390549 27.91835297 21.36667816 27.92521667 21.98771667 C27.99162566 28.26560122 28.03685306 34.54338585 28.06982422 40.8215332 C28.08490358 43.16402235 28.10537007 45.50648331 28.13134766 47.84887695 C28.16776751 51.21735598 28.18476442 54.58546146 28.19799805 57.95410156 C28.2134819 59.00011032 28.22896576 60.04611908 28.24491882 61.12382507 C28.24700519 70.15311488 28.24700519 70.15311488 24.9050293 74.16113281 C22.58665472 76.47950739 21.27741861 77.09636945 18.0300293 77.66113281 C13.6655842 76.9628216 12.05096011 75.23390245 8.9050293 72.16113281 C7.67422421 69.69952264 7.78458952 68.09616288 7.79150391 65.34423828 C7.79157944 64.34335175 7.79165497 63.34246521 7.79173279 62.31124878 C7.79689407 61.22788239 7.80205536 60.14451599 7.80737305 59.02832031 C7.80878799 57.92134796 7.81020294 56.81437561 7.81166077 55.67385864 C7.81727157 52.12792288 7.82982593 48.58204958 7.8425293 45.03613281 C7.8475429 42.63639414 7.85210605 40.23665448 7.85620117 37.83691406 C7.86724452 31.94496556 7.8839932 26.05305365 7.9050293 20.16113281 C7.15302246 20.18868652 6.40101563 20.21624023 5.6262207 20.24462891 C4.63799316 20.26605957 3.64976562 20.28749023 2.6315918 20.30957031 C1.65270996 20.33712402 0.67382812 20.36467773 -0.3347168 20.39306641 C-4.67013198 20.02877803 -6.22756154 18.33037452 -9.0949707 15.16113281 C-10.64521534 12.06064353 -10.38489086 9.58219063 -10.0949707 6.16113281 C-7.1672601 1.67197656 -5.2796166 0.04842931 0 0 Z " fill="#020202" transform="translate(256.094970703125,394.8388671875)"/>
<path d="M0 0 C2.96496103 1.30540673 5.51162014 3.05582476 8.1484375 4.92578125 C8.8870401 5.42917526 9.6256427 5.93256927 10.3866272 6.45121765 C11.93704657 7.51278778 13.4814516 8.58319007 15.02001953 9.66186523 C17.37701605 11.31391307 19.75072018 12.93919018 22.12890625 14.56054688 C23.63645131 15.59745568 25.14299812 16.63581766 26.6484375 17.67578125 C27.35672699 18.16339432 28.06501648 18.65100739 28.79476929 19.15339661 C29.44950226 19.61364731 30.10423523 20.07389801 30.77880859 20.5480957 C31.35424408 20.9500264 31.92967957 21.35195709 32.52255249 21.7660675 C35.30546953 24.09030017 35.9821967 25.80772435 36.3125 29.375 C35.97820055 33.25287366 35.46698095 35.02260919 33 38 C29.30629043 40.09642976 26.19533692 40.3639907 22 40 C19.10327148 38.42358398 19.10327148 38.42358398 16.12109375 36.24609375 C15.58654068 35.86638931 15.05198761 35.48668488 14.50123596 35.09547424 C12.22825204 33.48063685 9.97924433 31.8337265 7.72875977 30.18774414 C6.07638617 28.9864721 4.41196891 27.80353514 2.74609375 26.62109375 C1.76310303 25.9036499 0.7801123 25.18620605 -0.23266602 24.44702148 C-2.85027064 22.78956546 -2.85027064 22.78956546 -5.50708008 23.08056641 C-8.42687944 24.1574408 -10.95351284 25.50335124 -13.6328125 27.08984375 C-14.68597656 27.70923828 -15.73914063 28.32863281 -16.82421875 28.96679688 C-17.91347656 29.61712891 -19.00273437 30.26746094 -20.125 30.9375 C-21.22199219 31.58396484 -22.31898438 32.23042969 -23.44921875 32.89648438 C-29.28984632 36.34381788 -29.28984632 36.34381788 -35 40 C-39.83854515 40.54628736 -41.88468814 40.75936127 -45.9375 38 C-48.69292627 33.99210725 -49 31.86864262 -49 27 C-46.9456382 22.39234077 -44.28168952 20.63164544 -39.93359375 18.22265625 C-39.34006607 17.88882431 -38.74653839 17.55499237 -38.13502502 17.21104431 C-36.2422185 16.14960403 -34.34042744 15.1056667 -32.4375 14.0625 C-30.56781995 13.02244355 -28.70014452 11.97886845 -26.83291626 10.93441772 C-25.611875 10.25353238 -24.38871027 9.57644073 -23.16342163 8.90322876 C-18.78153817 6.48676701 -14.58546864 3.86105371 -10.46118164 1.02905273 C-6.91203848 -0.45489116 -3.73848411 -0.6860631 0 0 Z " fill="#020303" transform="translate(204,275)"/>
<path d="M0 0 C2.96473791 1.44317843 5.83011476 3.00598595 8.70361328 4.62280273 C9.69619141 5.15325195 10.68876953 5.68370117 11.71142578 6.23022461 C19.9238358 10.7648548 19.9238358 10.7648548 22.45361328 15.93530273 C22.89661948 19.47935235 22.68407426 21.42828859 21.20361328 24.68530273 C19.32232148 27.10410648 18.35568902 28.02322179 15.45361328 28.93530273 C9.05994892 29.65611116 5.22696932 26.85367044 0.02001953 23.60327148 C-3.14493287 21.75866732 -4.91208404 20.81759708 -8.57763672 21.49780273 C-9.55732422 21.97217773 -10.53701172 22.44655273 -11.54638672 22.93530273 C-12.68076172 23.43288086 -13.81513672 23.93045898 -14.98388672 24.44311523 C-17.36085099 25.52213191 -19.73585556 26.60547595 -22.10888672 27.69311523 C-25.58674095 28.94988529 -27.89019868 29.37341942 -31.54638672 28.93530273 C-35.38766977 25.6915526 -37.35418644 23.63307189 -37.92138672 18.62280273 C-37.53662152 14.83927829 -37.05624135 13.80023475 -34.35644531 11.28466797 C-30.32070613 8.27609898 -25.70624348 6.26172447 -21.17138672 4.12280273 C-20.15560547 3.62071289 -19.13982422 3.11862305 -18.09326172 2.60131836 C-6.73905025 -2.81773712 -6.73905025 -2.81773712 0 0 Z " fill="#020303" transform="translate(92.54638671875,301.064697265625)"/>
<path d="M0 0 C3.53381129 0.06763275 4.68409495 0.33464997 7.8125 2.25 C10.54376084 6.65525942 10.75187438 10.32422834 9.75 15.375 C7.8125 18.5 7.8125 18.5 4.75 20.375 C1.58813712 21.06111853 -1.08881249 21.06794147 -4.25 20.375 C-7.41180151 18.33300319 -8.78844819 16.80892218 -9.9453125 13.21484375 C-10.39125768 10.78646955 -10.56958587 8.82515834 -10.25 6.375 C-7.875 3.375 -7.875 3.375 -5.25 1.375 C-3.69049449 -0.18450551 -2.16122869 0.09303302 0 0 Z " fill="#040404" transform="translate(502.25,279.625)"/>
</svg>
